<svg xmlns="http://www.w3.org/2000/svg" viewBox="0 0 795.85 624.79"><defs><style>.cls-1{fill:#423888;}.cls-2,.cls-4{font-size:48px;fill:#fff;}.cls-2{font-family:Gotham-MediumItalic, Gotham;font-weight:500;font-style:italic;}.cls-3{letter-spacing:-0.05em;}.cls-4{font-family:Gotham-Book, Gotham;}.cls-5{letter-spacing:-0.01em;}.cls-6{letter-spacing:-0.02em;}.cls-7{letter-spacing:-0.02em;}.cls-8{letter-spacing:-0.02em;}.cls-9{letter-spacing:0em;}.cls-10{letter-spacing:-0.02em;}.cls-11{letter-spacing:0em;}.cls-12{letter-spacing:0em;}.cls-13{letter-spacing:-0.04em;}.cls-14{letter-spacing:-0.03em;}.cls-15{letter-spacing:-0.01em;}.cls-16{letter-spacing:-0.01em;}.cls-17{letter-spacing:-0.01em;}</style></defs><g id="Calque_14" data-name="Calque 14"><rect class="cls-1" x="56.31" y="103.92" width="683.23" height="436.84"/><text class="cls-2" transform="translate(263.62 191.92)">NIVE<tspan class="cls-3" x="119.23" y="0">A</tspan><tspan x="153.45" y="0">U 2</tspan></text><text class="cls-4" transform="translate(109.76 322.35)"><tspan class="cls-5">C</tspan><tspan x="34.94" y="0">omp</tspan><tspan class="cls-6" x="143.47" y="0">r</tspan><tspan x="161.85" y="0">end</tspan><tspan class="cls-7" x="251.71" y="0">r</tspan><tspan x="270.09" y="0">e la </tspan><tspan class="cls-5" x="367.72" y="0">s</tspan><tspan x="391.15" y="0">t</tspan><tspan class="cls-8" x="410.54" y="0">r</tspan><tspan class="cls-9" x="428.78" y="0">a</tspan><tspan class="cls-10" x="456.33" y="0">t</tspan><tspan class="cls-11" x="475" y="0">égie</tspan><tspan x="35.57" y="57.6">de </tspan><tspan class="cls-10" x="110.25" y="57.6">c</tspan><tspan x="136.94" y="57.6">ommunic</tspan><tspan class="cls-12" x="358.41" y="57.6">a</tspan><tspan x="385.96" y="57.6">tion et</tspan><tspan x="22.61" y="115.2">l</tspan><tspan class="cls-13" x="35.23" y="115.2">’</tspan><tspan class="cls-14" x="44.98" y="115.2">e</tspan><tspan class="cls-11" x="71.95" y="115.2">xperien</tspan><tspan class="cls-15" x="249.84" y="115.2">c</tspan><tspan class="cls-11" x="276.53" y="115.2">e utilis</tspan><tspan class="cls-16" x="430.07" y="115.2">a</tspan><tspan class="cls-17" x="457.63" y="115.2">t</tspan><tspan x="476.3" y="115.2">eur</tspan></text></g></svg>